<?xml version="1.0" encoding="UTF-8"?>
<svg width="55px" height="55px" viewBox="0 0 55 55" version="1.1" xmlns="http://www.w3.org/2000/svg" xmlns:xlink="http://www.w3.org/1999/xlink">
    <!-- Generator: Sketch 51.3 (57544) - http://www.bohemiancoding.com/sketch -->
    <title>warning</title>
    <desc>Created with Sketch.</desc>
    <defs></defs>
    <g id="Page-1" stroke="none" stroke-width="1" fill="none" fill-rule="evenodd">
        <g id="warning" fill-rule="nonzero">
            <path d="M46.3698854,54.991624 L8.60837946,54.991624 C5.64236536,54.9912053 2.88785108,53.4525387 1.32793498,50.9242507 C-0.231563054,48.3963816 -0.373677704,45.2394768 0.95216749,42.5809423 L19.8312485,4.74415205 C21.2803988,1.83685119 24.245577,0 27.4891325,0 C30.7326879,0 33.697866,1.83685119 35.1470164,4.74415205 L54.0260975,42.5809423 C55.3519424,45.2394768 55.209828,48.3963816 53.6503299,50.9242507 C52.0908317,53.4525387 49.3358995,54.9912053 46.3698854,54.991624 Z" id="Shape" fill="#FF7761"></path>
            <g id="Group" transform="translate(25.680934, 13.723197)" fill="#FFFFFF">
                <path d="M1.80819862,0.0217775341 C2.75367826,0.0217775341 3.52026088,0.789854464 3.52026088,1.73717714 L3.52026088,22.3219725 C3.52026088,23.2692951 2.75367826,24.0373721 1.80819862,24.0373721 C0.862718872,24.0373721 0.0961363619,23.2692951 0.0961363619,22.3219725 L0.0961363619,1.73717714 C0.0961363619,0.789854464 0.862718872,0.0217775341 1.80819862,0.0217775341 Z" id="Shape"></path>
                <polygon id="Shape" points="0.0961363619 27.4681713 3.52026088 27.4681713 3.52026088 30.8989705 0.0961363619 30.8989705"></polygon>
            </g>
        </g>
    </g>
</svg>